<svg xmlns="http://www.w3.org/2000/svg" viewBox="0 0 420 300" role="img" aria-label="二次元小金豆">
  <rect width="420" height="300" fill="#fffaf0"/>
  <rect x="20" y="20" width="380" height="260" rx="24" fill="#ffeef7" stroke="#2b2118" stroke-width="8"/>
  <circle cx="82" cy="68" r="18" fill="#fff" opacity=".75"/>
  <circle cx="348" cy="68" r="26" fill="#e8dcff" opacity=".8"/>
  <path d="M55 222c60-52 250-52 310 0" fill="#bfeeda" stroke="#2b2118" stroke-width="7" stroke-linecap="round"/>
  <ellipse cx="210" cy="143" rx="96" ry="66" fill="#ffc36d" stroke="#2b2118" stroke-width="9"/>
  <path d="M158 122c20-30 78-40 118-12" fill="none" stroke="#fff7df" stroke-width="13" stroke-linecap="round"/>
  <circle cx="178" cy="148" r="10" fill="#2b2118"/>
  <circle cx="242" cy="148" r="10" fill="#2b2118"/>
  <circle cx="158" cy="166" r="14" fill="#ff7da7" opacity=".72"/>
  <circle cx="262" cy="166" r="14" fill="#ff7da7" opacity=".72"/>
  <path d="M192 178c12 11 24 11 36 0" fill="none" stroke="#2b2118" stroke-width="7" stroke-linecap="round"/>
  <path d="M88 88 100 118l32 12-32 12-12 32-12-32-32-12 32-12 12-30Z" fill="#ffd96b" stroke="#2b2118" stroke-width="6" stroke-linejoin="round"/>
  <path d="M326 104 334 124l22 8-22 8-8 22-8-22-22-8 22-8 8-20Z" fill="#ffffff" stroke="#2b2118" stroke-width="5" stroke-linejoin="round"/>
  <text x="210" y="255" text-anchor="middle" font-family="monospace" font-size="24" font-weight="900" fill="#2b2118">LUCKY GOLD BEAN</text>
</svg>
