<svg xmlns="http://www.w3.org/2000/svg" viewBox="0 0 150 150" role="img" aria-label="动漫猫猫">
  <path d="M38 52 28 20l32 20M112 52l10-32-32 20" fill="#f0c978" stroke="#2b2118" stroke-width="8" stroke-linejoin="round"/>
  <rect x="24" y="42" width="102" height="84" rx="34" fill="#ffd98b" stroke="#2b2118" stroke-width="8"/>
  <path d="M45 43c18-14 42-14 60 0" stroke="#fff7df" stroke-width="9" stroke-linecap="round"/>
  <circle cx="56" cy="80" r="9" fill="#2b2118"/>
  <circle cx="94" cy="80" r="9" fill="#2b2118"/>
  <circle cx="47" cy="96" r="7" fill="#ff8fb1"/>
  <circle cx="103" cy="96" r="7" fill="#ff8fb1"/>
  <path d="M68 96h14M58 108c10 8 24 8 34 0" stroke="#2b2118" stroke-width="5" stroke-linecap="round"/>
  <path d="M25 86H5M28 98H8M125 86h20M122 98h20" stroke="#2b2118" stroke-width="5" stroke-linecap="round"/>
</svg>
