<svg xmlns="http://www.w3.org/2000/svg" viewBox="0 0 160 120" role="img" aria-label="猫猫堆">
  <rect x="12" y="44" width="58" height="54" rx="22" fill="#fff2c7" stroke="#2b2118" stroke-width="7"/>
  <path d="M24 48 18 26l22 15M58 48l8-22-22 15" fill="#fff2c7" stroke="#2b2118" stroke-width="7"/>
  <rect x="50" y="28" width="62" height="70" rx="24" fill="#f0c978" stroke="#2b2118" stroke-width="7"/>
  <path d="M64 32 58 10l22 15M98 32l8-22-22 15" fill="#f0c978" stroke="#2b2118" stroke-width="7"/>
  <rect x="94" y="48" width="54" height="50" rx="20" fill="#c7b2ff" stroke="#2b2118" stroke-width="7"/>
  <path d="M104 50 100 32l18 12M138 50l4-18-18 12" fill="#c7b2ff" stroke="#2b2118" stroke-width="7"/>
  <circle cx="36" cy="72" r="4" fill="#2b2118"/><circle cx="52" cy="72" r="4" fill="#2b2118"/>
  <circle cx="74" cy="60" r="4" fill="#2b2118"/><circle cx="92" cy="60" r="4" fill="#2b2118"/>
  <circle cx="114" cy="74" r="4" fill="#2b2118"/><circle cx="130" cy="74" r="4" fill="#2b2118"/>
</svg>
