<svg xmlns="http://www.w3.org/2000/svg" viewBox="0 0 150 150" role="img" aria-label="嘎子姐风可爱玩偶">
  <path d="M42 50c2-22 18-36 34-36s32 14 34 36" fill="#ffd1df" stroke="#2b2118" stroke-width="8" stroke-linecap="round"/>
  <rect x="30" y="42" width="90" height="88" rx="34" fill="#ffe8f0" stroke="#2b2118" stroke-width="8"/>
  <path d="M40 58c14-20 56-28 78-4" fill="none" stroke="#ef6f91" stroke-width="9" stroke-linecap="round"/>
  <circle cx="58" cy="80" r="7" fill="#2b2118"/>
  <circle cx="92" cy="80" r="7" fill="#2b2118"/>
  <circle cx="49" cy="94" r="8" fill="#ff8fb1" opacity=".85"/>
  <circle cx="101" cy="94" r="8" fill="#ff8fb1" opacity=".85"/>
  <path d="M62 103c9 8 17 8 26 0" fill="none" stroke="#2b2118" stroke-width="5" stroke-linecap="round"/>
  <path d="M29 70 14 60M121 70l15-10" stroke="#2b2118" stroke-width="7" stroke-linecap="round"/>
  <path d="M54 28 42 10M96 28l12-18" stroke="#ef6f91" stroke-width="7" stroke-linecap="round"/>
  <text x="75" y="143" text-anchor="middle" font-family="monospace" font-size="13" font-weight="900" fill="#2b2118">GAZI DOLL</text>
</svg>
