<svg xmlns="http://www.w3.org/2000/svg" viewBox="0 0 360 260" role="img" aria-label="潮玩收藏主题装饰">
  <rect x="24" y="34" width="312" height="194" rx="18" fill="#fff7df" stroke="#2b2118" stroke-width="8"/>
  <path d="M42 164h276M42 96h276" stroke="#2b2118" stroke-width="6" stroke-linecap="round"/>
  <path d="M84 78 64 48l8 54M128 78l20-30-8 54" fill="#c7b2ff" stroke="#2b2118" stroke-width="6" stroke-linejoin="round"/>
  <rect x="76" y="70" width="64" height="58" rx="22" fill="#d8c8ff" stroke="#2b2118" stroke-width="6"/>
  <circle cx="98" cy="98" r="5" fill="#2b2118"/><circle cx="120" cy="98" r="5" fill="#2b2118"/>
  <path d="M212 44 222 72l30 2-23 19 8 29-25-15-25 15 8-29-23-19 30-2 10-28Z" fill="#ffd96b" stroke="#2b2118" stroke-width="6" stroke-linejoin="round"/>
  <path d="M72 188 64 168l22 12M128 188l8-20-22 12" fill="#f0c978" stroke="#2b2118" stroke-width="6"/>
  <rect x="66" y="182" width="76" height="42" rx="18" fill="#f0c978" stroke="#2b2118" stroke-width="6"/>
  <rect x="198" y="178" width="76" height="44" rx="18" fill="#ffe0a8" stroke="#2b2118" stroke-width="6"/>
  <path d="M206 184c-18 0-20 20-8 28M266 184c18 0 20 20 8 28" fill="#c67a42" stroke="#2b2118" stroke-width="6"/>
  <text x="180" y="244" text-anchor="middle" font-family="monospace" font-size="20" font-weight="900" fill="#2b2118">CUTE TOY SHELF</text>
</svg>
